<svg xmlns="http://www.w3.org/2000/svg" viewBox="0 0 180 240" role="img" aria-label="Upper chest anatomy target"><defs><linearGradient id="body" x1="0" y1="0" x2="1" y2="1"><stop offset="0" stop-color="#d8dadd"/><stop offset="1" stop-color="#6e737b"/></linearGradient><filter id="glow"><feGaussianBlur stdDeviation="2.5" result="b"/><feMerge><feMergeNode in="b"/><feMergeNode in="SourceGraphic"/></feMerge></filter></defs><rect width="180" height="240" rx="24" fill="#111318"/><circle cx="90" cy="28" r="18" fill="url(#body)" stroke="#30343a" stroke-width="2"/><path d="M66 48 Q90 40 114 48 L122 105 Q116 132 104 142 L103 170 H77 L76 142 Q64 132 58 105Z" fill="url(#body)" stroke="#30343a" stroke-width="2"/><path d="M66 55 Q47 65 39 92 L30 139 Q29 148 37 150 Q45 151 48 142 L57 101 Q61 85 70 76Z" fill="url(#body)" stroke="#30343a" stroke-width="2"/><path d="M114 55 Q133 65 141 92 L150 139 Q151 148 143 150 Q135 151 132 142 L123 101 Q119 85 110 76Z" fill="url(#body)" stroke="#30343a" stroke-width="2"/><path d="M77 168 L66 225 Q65 236 75 236 Q83 236 85 227 L91 181Z" fill="url(#body)" stroke="#30343a" stroke-width="2"/><path d="M103 168 L114 225 Q115 236 105 236 Q97 236 95 227 L89 181Z" fill="url(#body)" stroke="#30343a" stroke-width="2"/><path d="M68 60 Q77 52 88 57 L87 82 Q76 84 65 75Z" fill="#ef5a4c" filter="url(#glow)"/><path d="M112 60 Q103 52 92 57 L93 82 Q104 84 115 75Z" fill="#ef5a4c" filter="url(#glow)"/><ellipse cx="59" cy="73" rx="10" ry="14" fill="#e6b94f"/><ellipse cx="121" cy="73" rx="10" ry="14" fill="#e6b94f"/><path d="M42 91 L54 96 L47 130 L36 126Z" fill="#e6b94f"/><path d="M138 91 L126 96 L133 130 L144 126Z" fill="#e6b94f"/><path d="M79 92 H101 L99 132 Q90 138 81 132Z" fill="#438ee8" opacity=".95"/></svg>